<svg width="40" height="38" fill="none" xmlns="http://www.w3.org/2000/svg"><path d="M13.175 25.045c0-3.754 4.868-4.354 4.868-6.422 0-.909-.703-1.452-1.583-1.452-1.217 0-1.877 1.232-1.877 1.232l-1.408-.938s.953-2.082 3.446-2.082c1.832 0 3.387 1.114 3.387 3.079 0 3.343-4.662 3.915-4.706 5.88h4.867v1.627h-6.905c-.044-.337-.089-.63-.089-.924zm8.054-2.918l4.487-6.569h2.243v6.158h1.35v1.57h-1.35v2.683h-1.862v-2.683h-4.868v-1.159zm4.868-.41v-3.225c0-.514.074-1.085.074-1.085h-.03s-.234.556-.513.952l-2.405 3.329v.028h2.874zm9.182-.552l-.362 1.297c-2.06 7.377-9.573 12.032-17.006 10.187-7.14-1.772-11.577-8.69-10.51-15.738l2.151.6a.673.673 0 00.832-.815l-2.339-9.11a.673.673 0 00-1.122-.313l-6.72 6.58a.673.673 0 00.29 1.129l2.34.654c-1.747 9.534 4.135 19.03 13.733 21.529 9.967 2.595 20.132-3.574 22.902-13.494l.346-1.24a.673.673 0 00-.467-.83l-3.239-.903a.672.672 0 00-.828.466zm3.828-5.677l-3.397.441a.673.673 0 00-.58.754l.134 1.03a.672.672 0 00.753.58l3.397-.44a.673.673 0 00.58-.755l-.134-1.03a.672.672 0 00-.753-.58zM36.492 9.07l-2.984 1.681a.673.673 0 00-.256.916l.51.905a.673.673 0 00.916.256l2.984-1.682a.673.673 0 00.256-.916l-.51-.905a.673.673 0 00-.916-.255zm-4.829-4.972l-2.137 2.677a.672.672 0 00.106.945l.812.648c.29.232.714.184.946-.106l2.136-2.677a.673.673 0 00-.106-.945l-.812-.648a.673.673 0 00-.945.106zm-6.34-2.8l-.978 3.282a.672.672 0 00.452.836l.996.297a.673.673 0 00.837-.452l.978-3.283a.673.673 0 00-.452-.836L26.16.845a.673.673 0 00-.837.452zm-6.927-.223l.323 3.41c.035.37.363.642.733.607l1.034-.098a.672.672 0 00.606-.733L20.77.85a.672.672 0 00-.733-.606l-1.034.097a.673.673 0 00-.607.733zm-6.506 2.39l1.577 3.04c.17.33.577.459.906.288l.923-.478a.673.673 0 00.287-.907l-1.576-3.04a.673.673 0 00-.907-.288l-.922.478a.673.673 0 00-.288.907z" fill="#064DD7"/></svg>